# xmcd
#
# Track frame offsets:
#	151
#	18667
#	39200
#	58884
#	75913
#	92809
#	108680
#	123393
#	138860
#	154987
#	174947
#	192073
#	205593
#	222903
#	238893
#	255035
#	271805
#	291167
#
# Disc length: 4122 seconds
#
# Revision: 1
# Processed by: cddbd v1.5.2PL0 Copyright (c) Steve Scherf et al.
# Submitted via: audiograbber 1.83.01
#
DISCID=f2101812
DTITLE=Doc Holiday - Through The Years
DYEAR=1998
DGENRE=Country
TTITLE0=Early Morning Rain
TTITLE1=Four Strong Winds
TTITLE2=Just My Imaginzation
TTITLE3=Canadien State Of Mind
TTITLE4=Tupelo Honey
TTITLE5=Broken Bottles
TTITLE6=Two Room Walk Up
TTITLE7=Sad State Of Affair
TTITLE8=Two Hearts
TTITLE9=Land Of Oz
TTITLE10=Walkin´ In Memphis
TTITLE11=Thank Old Hank
TTITLE12=Turning Off A Memory
TTITLE13=I Tried To Work For Jesus
TTITLE14=A Song For You
TTITLE15=La, La, La Means I Love
TTITLE16=Are You Ready
TTITLE17=Do It To Me One More Time
EXTD=
EXTT0=
EXTT1=
EXTT2=
EXTT3=
EXTT4=
EXTT5=
EXTT6=
EXTT7=
EXTT8=
EXTT9=
EXTT10=
EXTT11=
EXTT12=
EXTT13=
EXTT14=
EXTT15=
EXTT16=
EXTT17=
PLAYORDER=
